<svg width="142" height="24" viewBox="0 0 142 24" fill="none" xmlns="http://www.w3.org/2000/svg">
<path d="M47.3168 5.44737L43.783 19.1654H41.4897L38.4979 9.72191L35.4957 19.1654H33.2024L29.6686 5.44737H32.0453L34.5367 15.3069L37.2678 5.44737H39.7175L42.4487 15.3069L44.9401 5.44737H47.3168Z" fill="currentColor"/>
<path d="M48.4009 12.3116C48.4009 7.90187 50.3398 5.15619 54.1759 5.15619C58.0121 5.15619 59.9301 7.90187 59.9301 12.3116C59.9301 16.7214 57.9808 19.467 54.1759 19.467C50.3711 19.467 48.4009 16.7214 48.4009 12.3116ZM57.5534 12.3116C57.5534 10.5852 57.1781 7.35066 54.1759 7.35066C51.1738 7.35066 50.7777 10.5852 50.7777 12.3116C50.7777 14.0381 51.1633 17.2726 54.1759 17.2726C57.1885 17.2726 57.5534 14.0381 57.5534 12.3116Z" fill="currentColor"/>
<path d="M69.6038 19.1654L66.9352 13.5596H64.5793V19.1654H62.2026V5.44737H67.0394C70.3752 5.44737 72.2203 6.48741 72.2203 9.4307C72.2203 11.6252 71.2612 12.8004 69.4683 13.2892L72.2411 19.1654H69.6038ZM64.5793 11.3548H66.9352C68.9575 11.3548 69.8852 10.8451 69.8852 9.5035C69.8852 8.16186 68.9054 7.66264 66.9352 7.66264H64.5793V11.3548Z" fill="currentColor"/>
<path d="M74.7325 5.44737H77.1092V16.9189H83.9058V19.1654H74.7325V5.44737Z" fill="currentColor"/>
<path d="M86.147 5.44737H90.0561C94.1737 5.44737 96.8319 8.14106 96.8319 12.3532C96.8319 16.5653 94.1737 19.1654 90.0561 19.1654H86.147V5.44737ZM90.2229 16.9189C92.8394 16.9189 94.4551 15.0365 94.4551 12.3532C94.4551 9.66991 92.7664 7.70424 90.2229 7.70424H88.5238V16.9189H90.2229Z" fill="currentColor"/>
<path d="M98.8125 12.27C98.8125 8.01624 101.189 5.21855 104.879 5.21855C107.506 5.21855 109.747 6.64339 110.456 9.33708L108.236 10.0131C107.788 8.72346 107.131 7.47542 104.879 7.47542C102.628 7.47542 101.189 9.49308 101.189 12.27C101.189 15.0469 102.544 17.1477 104.879 17.1477C107.214 17.1477 107.965 15.7541 108.257 14.5476L110.456 15.2341C109.81 17.8757 107.683 19.4046 104.879 19.4046C101.189 19.4046 98.8125 16.5861 98.8125 12.27Z" fill="currentColor"/>
<path d="M112.364 12.3116C112.364 7.90187 114.303 5.15619 118.129 5.15619C121.954 5.15619 123.883 7.90187 123.883 12.3116C123.883 16.7214 121.944 19.467 118.129 19.467C114.313 19.467 112.364 16.7214 112.364 12.3116ZM121.506 12.3116C121.506 10.5852 121.141 7.35066 118.129 7.35066C115.116 7.35066 114.73 10.5852 114.73 12.3116C114.73 14.0381 115.126 17.2726 118.129 17.2726C121.131 17.2726 121.506 14.0381 121.506 12.3116Z" fill="currentColor"/>
<path d="M126.666 5.44737H129.043V19.1654H126.666V5.44737Z" fill="currentColor"/>
<path d="M142 5.44737V19.1654H139.623L134.276 10.2315V19.1654H131.909V5.44737H134.276L139.623 14.7037V5.44737H142Z" fill="currentColor"/>
<path d="M14.345 9.46189C14.4058 9.53243 14.4906 9.57789 14.5831 9.58943C14.6756 9.60096 14.7691 9.57774 14.8454 9.52429C15.5542 9.02507 16.7634 8.19305 18.0769 7.37142C19.0516 8.46561 19.6918 9.81539 19.922 11.2611C20.954 9.7843 23.8728 5.97778 21.3605 4.07452C19.2131 2.48327 14.7099 7.23622 14.2616 9.12908C14.247 9.18712 14.247 9.24785 14.2616 9.3059C14.2761 9.36395 14.3048 9.41753 14.345 9.46189Z" fill="currentColor"/>
<path d="M16.0963 11.9893C16.0287 12.0237 15.9729 12.0773 15.9357 12.1432C15.8985 12.2092 15.8816 12.2846 15.8872 12.3601C15.8927 12.4356 15.9205 12.5078 15.9669 12.5676C16.0134 12.6274 16.0765 12.6723 16.1484 12.6965C16.9823 12.9461 18.3896 13.3725 19.849 13.8821C19.6001 15.3282 18.9376 16.6718 17.9414 17.751C19.7447 17.6262 24.5503 17.5326 24.4878 14.3917C24.3939 11.7292 17.8684 11.1676 16.0963 11.9893Z" fill="currentColor"/>
<path d="M14.9913 15.2133C14.9376 15.1875 14.8788 15.1741 14.8193 15.1741C14.7597 15.1741 14.7009 15.1875 14.6473 15.2133C14.5643 15.2577 14.5005 15.3309 14.4678 15.419C14.4352 15.5072 14.436 15.6041 14.4701 15.6917C14.8037 16.4926 15.3457 17.8654 15.8461 19.3214C13.6674 20.4967 11.6347 20.2367 11.6347 20.2367C12.8439 21.5679 15.9086 25.26 18.3375 23.2632C20.3598 21.5263 16.7426 16.0765 14.9913 15.2133Z" fill="currentColor"/>
<path d="M11.7807 16.347C11.7681 16.2892 11.7416 16.2353 11.7035 16.19C11.6653 16.1446 11.6167 16.1093 11.5618 16.087C11.4755 16.0497 11.3783 16.0462 11.2895 16.077C11.2007 16.1078 11.1268 16.1708 11.0822 16.2534C10.6549 17.0022 9.92516 18.271 9.09122 19.5815C7.73607 19.0137 6.57412 18.0675 5.74505 16.8566C5.45317 18.6351 4.47329 23.3256 7.54843 23.9704C10.1753 24.48 12.1872 18.2606 11.7807 16.347Z" fill="currentColor"/>
<path d="M8.89313 14.558C8.9283 14.511 8.95222 14.4566 8.96306 14.3989C8.9739 14.3412 8.97138 14.2818 8.95567 14.2252C8.93327 14.1332 8.87671 14.053 8.79739 14.0009C8.71808 13.9488 8.62191 13.9286 8.52828 13.9444C7.6735 14.0796 6.22453 14.298 4.68174 14.4644C4.28697 13.0536 4.30506 11.5596 4.73386 10.1587C3.15981 11.0323 -1.13497 13.1852 0.282724 15.9933C1.51278 18.3542 7.65265 16.0661 8.89313 14.558Z" fill="currentColor"/>
<path d="M8.49699 11.178C8.55645 11.1793 8.61531 11.1658 8.66814 11.1385C8.72097 11.1113 8.76607 11.0712 8.7993 11.0219C8.85772 10.9492 8.88597 10.8569 8.87821 10.764C8.87045 10.6712 8.82728 10.5848 8.7576 10.5227C8.1113 9.94031 7.0376 8.94188 5.95348 7.83945C6.81122 6.64993 7.99482 5.73267 9.36221 5.19777C7.69433 4.52174 3.32658 2.50408 2.00271 5.35377C0.918587 7.78745 6.54766 11.1468 8.49699 11.178Z" fill="currentColor"/>
<path d="M11.2073 8.91066C11.3026 8.9084 11.3937 8.87101 11.463 8.80572C11.5323 8.74042 11.5749 8.65183 11.5826 8.55705C11.6347 7.70422 11.7494 6.23777 11.937 4.70892C13.4021 4.63577 14.8571 4.98607 16.1275 5.71776C15.6272 3.9913 14.4909 -0.668045 11.4366 0.0807789C8.85143 0.7464 9.70622 7.2258 10.905 8.77545C10.9399 8.82156 10.9859 8.85812 11.0388 8.88175C11.0916 8.90539 11.1496 8.91533 11.2073 8.91066Z" fill="currentColor"/>
</svg>
